<svg width="234.75" height="145.65" viewBox="0 0 234.75 145.65" fill="none" xmlns="http://www.w3.org/2000/svg">
<path d="M 50.1 0 L 50.1 9.9 Q 44.625 9.9 40.162 10.988 A 17.668 17.668 0 0 0 37.1 12.02 Q 34.786 13.06 33.262 14.7 Q 30.868 17.279 31.188 21.739 A 15.741 15.741 0 0 0 31.2 21.9 L 34.35 52.65 Q 35.025 58.95 33.6 63.075 A 13.42 13.42 0 0 1 31.353 67.195 A 12.211 12.211 0 0 1 28.838 69.525 A 17.933 17.933 0 0 1 25.107 71.487 Q 23.357 72.172 21.294 72.627 A 31.901 31.901 0 0 1 20.325 72.825 A 29.325 29.325 0 0 1 24.246 73.762 Q 26.933 74.615 28.95 75.938 A 11.547 11.547 0 0 1 33.533 81.827 A 14.468 14.468 0 0 1 33.675 82.238 Q 34.828 85.729 34.504 91.108 A 46.824 46.824 0 0 1 34.35 93 L 31.2 123.75 A 15.409 15.409 0 0 0 31.151 124.784 Q 31.099 128.699 33.225 131.025 A 10.897 10.897 0 0 0 36.368 133.37 Q 37.707 134.051 39.35 134.503 A 20.242 20.242 0 0 0 40.125 134.7 Q 44.625 135.75 50.1 135.75 L 50.1 145.65 A 66.208 66.208 0 0 1 39.843 144.876 A 60.011 60.011 0 0 1 38.025 144.563 A 34.098 34.098 0 0 1 31.955 142.853 A 27.948 27.948 0 0 1 27.825 140.85 Q 23.4 138.225 21.15 133.688 Q 18.9 129.15 19.65 122.25 L 22.65 93.75 A 25.532 25.532 0 0 0 22.795 91.985 Q 22.894 89.824 22.575 87.985 A 12.775 12.775 0 0 0 21.712 85.05 A 8.271 8.271 0 0 0 19.19 81.864 Q 18.085 80.99 16.599 80.298 A 18.485 18.485 0 0 0 15.112 79.688 Q 10.05 77.85 0 77.85 L 0 67.8 A 90.325 90.325 0 0 0 5.259 67.658 Q 10.139 67.372 13.43 66.513 A 20.415 20.415 0 0 0 15.113 66 A 16.329 16.329 0 0 0 17.87 64.743 Q 20.643 63.126 21.713 60.675 Q 23.115 57.459 22.739 52.933 A 25.968 25.968 0 0 0 22.65 52.05 L 19.65 23.4 Q 18.905 16.546 21.12 12.023 A 13.755 13.755 0 0 1 21.15 11.963 Q 23.4 7.425 27.788 4.8 Q 32.175 2.175 37.988 1.088 A 65.252 65.252 0 0 1 49.119 0.007 A 72.339 72.339 0 0 1 50.1 0 Z" id="0" fill="url(#paint0_linear)" vector-effect="non-scaling-stroke"/>
<path d="M 123.75 38.55 L 111 38.55 L 111.975 68.925 L 83.475 58.8 L 79.65 70.65 L 108.675 79.2 L 90.15 103.2 L 100.2 110.55 L 117.375 85.5 L 134.55 110.55 L 144.6 103.2 L 126.075 79.2 L 155.1 70.65 L 151.275 58.8 L 122.775 68.925 L 123.75 38.55 Z" id="1" fill="url(#paint0_linear)" vector-effect="non-scaling-stroke" transform="translate(-40)"/>
<path d="M 184.65 9.9 L 184.65 0 A 66.208 66.208 0 0 1 194.907 0.774 A 60.011 60.011 0 0 1 196.725 1.088 A 34.098 34.098 0 0 1 202.795 2.798 A 27.948 27.948 0 0 1 206.925 4.8 Q 211.35 7.425 213.638 11.963 A 15.214 15.214 0 0 1 214.997 16.118 Q 215.484 18.805 215.233 22.052 A 32.428 32.428 0 0 1 215.1 23.4 L 212.1 52.05 Q 211.5 57.15 213.413 60.675 A 9.778 9.778 0 0 0 216.344 63.934 Q 217.609 64.848 219.265 65.551 A 20.108 20.108 0 0 0 220.425 66 A 25.599 25.599 0 0 0 224.216 66.988 Q 228.552 67.8 234.75 67.8 L 234.75 77.85 A 73.702 73.702 0 0 0 229.423 78.03 Q 223.995 78.424 220.463 79.688 A 17.877 17.877 0 0 0 217.438 81.075 Q 214.697 82.682 213.413 85.05 Q 211.614 88.365 212.037 93.138 A 22.776 22.776 0 0 0 212.1 93.75 L 215.1 122.25 Q 215.845 129.105 213.63 133.628 A 13.755 13.755 0 0 1 213.6 133.688 Q 211.35 138.225 206.963 140.85 Q 202.575 143.475 196.763 144.563 A 65.252 65.252 0 0 1 185.631 145.644 A 72.339 72.339 0 0 1 184.65 145.65 L 184.65 135.75 Q 190.125 135.75 194.588 134.7 Q 198.622 133.751 201.032 131.514 A 10.413 10.413 0 0 0 201.525 131.025 A 7.519 7.519 0 0 0 203.425 127.235 Q 203.706 125.811 203.58 124.105 A 15.621 15.621 0 0 0 203.55 123.75 L 200.4 93 Q 199.793 86.998 200.884 83.087 A 14.069 14.069 0 0 1 201.15 82.238 Q 202.575 78.15 206.288 75.975 A 19.24 19.24 0 0 1 209.694 74.431 Q 212.468 73.465 216.075 72.975 A 33.265 33.265 0 0 1 211.831 71.996 Q 208.775 71.063 206.513 69.6 Q 202.8 67.2 201.3 63.075 A 16.855 16.855 0 0 1 200.505 59.906 Q 200.093 57.259 200.296 53.975 A 40.021 40.021 0 0 1 200.4 52.65 L 203.55 21.9 A 14.3 14.3 0 0 0 203.615 20.87 Q 203.656 19.265 203.3 17.926 A 7.392 7.392 0 0 0 201.525 14.7 Q 199.05 12.075 194.625 10.988 A 36.458 36.458 0 0 0 189.606 10.139 A 49.127 49.127 0 0 0 184.65 9.9 Z" id="2" fill="url(#paint0_linear)" vector-effect="non-scaling-stroke" transform="translate(-80)"/>
<defs>
<linearGradient id="paint0_linear" x1="6.00017" y1="32.9999" x2="235" y2="344" gradientUnits="userSpaceOnUse">
<stop stop-color="#41D1FF"/>
<stop offset="1" stop-color="#BD34FE"/>
</linearGradient>
</defs>
</svg>